<svg xmlns="http://www.w3.org/2000/svg" viewBox="0 0 80 80">
  <rect width="80" height="80" rx="16" fill="#0a0a0f"/>
  <defs>
    <linearGradient id="b" x1="0%" y1="0%" x2="100%" y2="0%">
      <stop offset="0%" stop-color="#3b82f6"/>
      <stop offset="100%" stop-color="#06d6f7"/>
    </linearGradient>
  </defs>
  <circle cx="40" cy="40" r="30" fill="none" stroke="url(#b)" stroke-width="2.5"/>
  <circle cx="40" cy="40" r="27" fill="#0d0d16"/>
  <g stroke="url(#b)" stroke-width="0.8" fill="none" opacity="0.5">
    <polygon points="40,24 52,31 52,45 40,52 28,45 28,31"/>
    <line x1="40" y1="10" x2="40" y2="24"/>
    <line x1="52" y1="31" x2="64" y2="24"/>
    <line x1="52" y1="45" x2="64" y2="52"/>
    <line x1="40" y1="52" x2="40" y2="66"/>
    <line x1="28" y1="45" x2="16" y2="52"/>
    <line x1="28" y1="31" x2="16" y2="24"/>
  </g>
  <path d="M44 16 L32 40 L40 40 L28 64 L52 36 L43 36 Z" fill="url(#b)"/>
</svg>
